:SAMPLES-PER-SECOND 30
:FRAME-RANGE 1-1770
:FULLY-SPECIFIED
:DEGREES
388
root  -10.1313 38.3387 34.6455 -177.445 33.6033 -176.664
RightUpLeg  -2.35198 -3.40654 4.69975
RightLeg  23.7584 -6.1906 -3.20217
RightFoot  -21.7727 0.151003 3.26998
RightToes  -1.33073e-015 0 -3.6325e-017
Spine  -4.22274 1.85508 7.3761
Spine1  8.44171 1.61948 -0.640884
HEad  11.7807 21.9021 -6.25125
LeftShoulder1  1.26883 -1.55478 -19.8861
LeftArm  -2.48674 -3.90339 -45.8888
LeftForeArm  49.967 -50.3436 -9.74469
LeftHand  0.444748 8.6919 16.2554
RightShoulder  2.01434 4.09107 20.9648
RightArm  24.8229 27.148 63.0311
RightForeArm  51.8556 33.0171 4.44517
RightHand  1.0914 -10.6913 -23.8126
LeftUpLeg  -29.7582 -1.29469 6.64617
LeftLeg  21.5682 2.82572 1.55552
LeftFoot  -2.20381 0.345865 -4.16237
LeftToes  1.09107e-011 -1.16422e-010 2.98337e-011
389
root  -9.59429 38.1797 33.7138 -177.267 33.6533 -176.758
RightUpLeg  -0.618047 -3.36409 4.40071
RightLeg  23.5933 -6.05988 -3.1171
RightFoot  -23.3727 0.223389 3.62278
RightToes  -1.33073e-015 0 -3.6325e-017
Spine  -4.17477 2.26291 7.52654
Spine1  8.46283 2.17464 -1.3491
HEad  11.1215 21.2307 -6.2164
LeftShoulder1  1.26112 -1.65746 -19.1389
LeftArm  -5.42198 -6.78048 -45.0252
LeftForeArm  54.2211 -54.9002 -11.4853
LeftHand  0.577814 9.38403 17.2565
RightShoulder  2.08839 4.54404 20.299
RightArm  21.4995 29.3692 64.3756
RightForeArm  56.6284 39.5249 5.83306
RightHand  1.16869 -10.9372 -24.3144
LeftUpLeg  -30.4449 -2.96738 8.09417
LeftLeg  17.2585 -1.4463 -0.183816
LeftFoot  -1.17993 0.477445 -5.28931
LeftToes  1.09107e-011 -1.16422e-010 2.98337e-011
390
root  -9.04484 37.9888 32.716 -177.055 33.7668 -176.881
RightUpLeg  1.1489 -3.51843 4.01193
RightLeg  23.4228 -5.98417 -3.05858
RightFoot  -24.9029 0.301088 3.95205
RightToes  -1.33073e-015 0 -3.6325e-017
Spine  -4.09198 2.67588 7.52019
Spine1  8.35511 2.73532 -1.96205
HEad  10.5832 20.5543 -5.78454
LeftShoulder1  1.24517 -1.76669 -18.2094
LeftArm  -8.60426 -9.76094 -44.4142
LeftForeArm  59.4957 -59.4377 -13.6174
LeftHand  0.715644 10.035 18.2223
RightShoulder  2.16075 4.98591 19.7198
RightArm  19.6826 31.9382 65.9415
RightForeArm  59.7957 45.4113 7.39168
RightHand  1.18272 -10.4263 -26.898
LeftUpLeg  -31.4081 -5.01802 9.62446
LeftLeg  15.4358 -4.48647 -1.04302
LeftFoot  0.0196821 0.708443 -7.11889
LeftToes  1.09107e-011 -1.16422e-010 2.98337e-011
391
root  -8.47851 37.7682 31.642 -176.676 33.8107 -177.025
RightUpLeg  2.881 -3.42905 3.62466
RightLeg  23.2094 -6.11132 -3.0898
RightFoot  -26.3745 0.408587 4.45214
RightToes  -1.33073e-015 0 -3.6325e-017
Spine  -4.16295 3.06672 7.29192
Spine1  8.21978 3.25087 -2.42458
HEad  10.0576 19.8005 -5.17634
LeftShoulder1  1.21972 -1.82835 -17.3531
LeftArm  -11.183 -13.4114 -43.7516
LeftForeArm  64.5794 -63.2415 -15.902
LeftHand  0.810806 10.1707 19.8897
RightShoulder  2.22521 5.47515 18.9521
RightArm  18.7205 34.7596 67.8504
RightForeArm  61.687 49.8422 8.82387
RightHand  1.82452 -11.963 -31.3177
LeftUpLeg  -32.685 -6.42767 10.6117
LeftLeg  16.2925 -6.07134 -1.68197
LeftFoot  -1.09998 0.681882 -7.5297
LeftToes  1.09107e-011 -1.16422e-010 2.98337e-011
392
root  -7.93045 37.5492 30.5264 -176.025 33.9411 -177.392
RightUpLeg  4.18096 -3.16568 2.97508
RightLeg  23.0716 -6.13538 -3.08147
RightFoot  -27.6083 0.553393 5.18222
RightToes  -1.33073e-015 0 -3.6325e-017
Spine  -4.2903 3.41828 7.03681
Spine1  7.87999 3.88565 -3.49215
HEad  9.19554 19.0525 -4.65964
LeftShoulder1  1.19582 -1.95707 -16.2275
LeftArm  -13.0198 -17.4659 -42.979
LeftForeArm  70.2434 -66.3537 -18.2011
LeftHand  1.01308 11.1268 20.5954
RightShoulder  2.28103 5.97719 18.1253
RightArm  18.1117 37.8881 70.1627
RightForeArm  65.7855 52.6132 9.69499
RightHand  1.54676 -10.2497 -35.5269
LeftUpLeg  -34.3166 -6.72745 10.5259
LeftLeg  19.3581 -6.40058 -2.17295
LeftFoot  -3.80105 0.493722 -7.14129
LeftToes  1.09107e-011 -1.16422e-010 2.98337e-011
393
root  -7.39824 37.3604 29.3256 -175.265 34.112 -177.619
RightUpLeg  5.16219 -2.43718 2.41544
RightLeg  23.6767 -6.18977 -3.18689
RightFoot  -28.1573 0.784476 6.59722
RightToes  -1.33073e-015 0 -3.6325e-017
Spine  -4.28925 3.91478 6.53779
Spine1  7.45945 4.51645 -3.84454
HEad  7.73414 17.982 -4.5173
LeftShoulder1  1.26758 -2.31946 -16.0238
LeftArm  -14.6285 -21.337 -42.0704
LeftForeArm  75.5825 -68.6268 -20.2278
LeftHand  1.06768 11.4259 20.6145
RightShoulder  2.32658 6.41896 17.4264
RightArm  18.067 41.2671 71.6727
RightForeArm  68.3999 54.3479 10.303
RightHand  1.4563 -9.4733 -39.3552
LeftUpLeg  -35.7201 -6.81178 10.1101
LeftLeg  23.7733 -6.54958 -2.82326
LeftFoot  -4.61952 0.571414 -9.24527
LeftToes  1.09107e-011 -1.16422e-010 2.98337e-011
394
root  -6.92353 37.1832 28.0924 -174.478 34.1091 -177.787
RightUpLeg  5.28218 -1.49304 1.78686
RightLeg  26.0215 -5.75611 -3.27948
RightFoot  -28.1175 1.11536 8.84768
RightToes  -1.33073e-015 0 -3.6325e-017
Spine  -4.03007 4.25984 6.25019
Spine1  7.33889 5.0454 -4.45386
HEad  5.05388 16.9319 -4.57925
LeftShoulder1  1.32436 -2.5452 -16.1348
LeftArm  -16.2192 -24.6844 -41.5461
LeftForeArm  81.5051 -70.8254 -22.6412
LeftHand  1.1502 12.1502 19.8556
RightShoulder  2.34424 6.79408 16.652
RightArm  17.8103 44.4946 73.1179
RightForeArm  70.8005 55.0029 10.4699
RightHand  1.6267 -9.68822 -41.4968
LeftUpLeg  -37.2193 -7.33522 9.55114
LeftLeg  28.5208 -6.48236 -3.46914
LeftFoot  -5.96313 0.476992 -9.38099
LeftToes  1.09107e-011 -1.16422e-010 2.98337e-011
395
root  -6.44194 37.0669 26.8215 -173.75 34.0059 -178.178
RightUpLeg  4.39986 -0.380529 0.944952
RightLeg  30.2057 -4.86691 -3.29424
RightFoot  -26.982 1.44925 11.854
RightToes  -1.33073e-015 0 -3.6325e-017
Spine  -3.95096 4.537 5.69936
Spine1  7.70426 5.58786 -5.34755
HEad  1.71422 15.7261 -4.39955
LeftShoulder1  1.3639 -2.89369 -15.4429
LeftArm  -18.3135 -25.7233 -42.463
LeftForeArm  87.4152 -73.584 -26.9706
LeftHand  1.20219 12.9442 18.6313
RightShoulder  2.35587 7.19183 15.8149
RightArm  16.7012 46.5141 73.8668
RightForeArm  72.5948 55.1419 10.4389
RightHand  1.39342 -9.02372 -41.9575
LeftUpLeg  -37.9971 -8.63171 8.8783
LeftLeg  31.6548 -5.94454 -3.59634
LeftFoot  -6.07627 0.449454 -8.97154
LeftToes  1.09107e-011 -1.16422e-010 2.98337e-011
396
root  -5.94507 37.0095 25.5391 -172.776 34.0451 -178.466
RightUpLeg  2.03718 -0.523064 -0.486565
RightLeg  36.3249 -2.23086 -2.02158
RightFoot  -24.1055 1.48057 14.6353
RightToes  -1.33073e-015 0 -3.6325e-017
Spine  -4.29199 4.89842 5.20824
Spine1  8.77288 6.35432 -6.82335
HEad  -1.72001 14.4549 -3.8676
LeftShoulder1  1.29252 -2.46153 -15.8904
LeftArm  -19.9774 -25.856 -43.2006
LeftForeArm  94.3383 -76.8198 -35.1369
LeftHand  1.13839 13.2228 17.1165
RightShoulder  2.34572 7.45139 15.1195
RightArm  13.5093 46.9911 73.7916
RightForeArm  76.6592 55.6384 10.4675
RightHand  1.40082 -9.02937 -42.097
LeftUpLeg  -38.452 -10.2973 8.36153
LeftLeg  34.1801 -4.90534 -3.21873
LeftFoot  -7.01997 0.30799 -7.04334
LeftToes  1.09107e-011 -1.16422e-010 2.98337e-011
397
root  -5.42467 37.0483 24.2451 -171.665 33.6382 -178.545
RightUpLeg  -1.668 -1.93686 -2.08883
RightLeg  44.0266 0.227457 -0.0679077
RightFoot  -18.2534 0.899963 16.8529
RightToes  -1.33073e-015 0 -3.6325e-017
Spine  -4.40808 5.07195 4.68634
Spine1  9.34323 6.85533 -7.9877
HEad  -4.75329 13.0754 -2.65535
LeftShoulder1  1.18491 -1.80788 -16.7165
LeftArm  -22.2347 -24.6166 -43.4123
LeftForeArm  109.677 -79.5803 -46.4195
LeftHand  1.11309 13.4192 16.3759
RightShoulder  2.42022 7.55059 15.6554
RightArm  9.32229 46.2667 71.7296
RightForeArm  84.3488 58.6777 11.6449
RightHand  1.26052 -8.56498 -43.2264
LeftUpLeg  -38.5015 -11.8246 7.77218
LeftLeg  35.8468 -3.98311 -2.72031
LeftFoot  -7.28555 0.181216 -3.88309
LeftToes  1.09107e-011 -1.16422e-010 2.98337e-011
398
root  -4.84783 37.1582 22.988 -170.377 32.3527 -178.125
RightUpLeg  -6.10544 -3.84392 -2.68996
RightLeg  52.1474 0.927433 0.905706
RightFoot  -10.2951 -0.209946 15.2085
RightToes  -1.33073e-015 0 -3.6325e-017
Spine  -4.12808 5.01034 4.48899
Spine1  9.32372 7.01448 -8.64766
HEad  -7.77224 11.3024 -1.3388
LeftShoulder1  1.05518 -1.06475 -17.7681
LeftArm  -23.6476 -22.6523 -42.4145
LeftForeArm  155.502 -82.4205 -91.2247
LeftHand  1.24672 13.9691 17.0866
RightShoulder  2.46858 7.27597 16.7863
RightArm  5.67618 44.1208 68.0121
RightForeArm  92.996 67.5588 17.7283
RightHand  1.59825 -9.41191 -43.3178
LeftUpLeg  -38.2116 -12.4996 7.51401
LeftLeg  37.1424 -4.23343 -3.06314
LeftFoot  -8.77329 0.110221 -2.56866
LeftToes  1.09107e-011 -1.16422e-010 2.98337e-011
399
root  -4.20556 37.2845 21.8597 -169.087 30.2142 -177.559
RightUpLeg  -10.2549 -5.73603 -2.04481
RightLeg  58.7503 0.0586235 -0.367869
RightFoot  -3.86371 -0.86447 12.7748
RightToes  -1.33073e-015 0 -3.6325e-017
Spine  -3.33249 4.76198 3.98146
Spine1  8.42571 6.76056 -8.67451
HEad  -9.57851 8.81405 0.795155
LeftShoulder1  0.940542 -0.396831 -19.1249
LeftArm  -25.5876 -20.0038 -39.8322
LeftForeArm  -154.972 -77.3366 -143.539
LeftHand  1.25179 14.4852 16.2274
RightShoulder  2.54378 7.28569 17.5374
RightArm  0.939457 40.8758 63.7519
RightForeArm  107.697 76.6235 32.6457
RightHand  2.12573 -10.6613 -43.9134
LeftUpLeg  -37.8127 -12.0109 7.35127
LeftLeg  38.2513 -5.98362 -4.66417
LeftFoot  -10.3271 0.0770958 -1.70902
LeftToes  1.09107e-011 -1.16422e-010 2.98337e-011
400
root  -3.53178 37.4261 20.8988 -168.286 27.4558 -177.363
RightUpLeg  -12.7655 -7.85483 -1.59228
RightLeg  63.0783 0.0766436 -0.39922
RightFoot  -6.24268 -0.582922 12.0925
RightToes  -1.33073e-015 0 -3.6325e-017
Spine  -2.16004 4.58821 2.85495
Spine1  6.89114 6.33513 -8.09275
HEad  -10.0586 5.87421 2.78663
LeftShoulder1  0.763853 0.262988 -18.8006
LeftArm  -29.2421 -16.8137 -37.9945
LeftForeArm  -151.015 -71.0848 -156.473
LeftHand  1.32048 15.4554 15.4887
RightShoulder  2.45076 6.39651 18.8766
RightArm  -4.82854 38.4806 60.1626
RightForeArm  127.986 80.6526 51.3229
RightHand  0.614054 -6.83674 -45.3194
LeftUpLeg  -36.9986 -10.98 6.97315
LeftLeg  38.7349 -8.60188 -6.96029
LeftFoot  -11.5609 0.0701889 0.403579
LeftToes  1.09107e-011 -1.16422e-010 2.98337e-011
401
root  -2.86678 37.6305 20.0207 -168.369 24.7983 -177.673
RightUpLeg  -14.3567 -9.91807 -1.69301
RightLeg  65.5293 -0.377546 -1.54436
RightFoot  -8.82403 -0.359194 13.5468
RightToes  -1.33073e-015 0 -3.6325e-017
Spine  -0.883966 4.52084 1.71153
Spine1  4.81873 5.85153 -6.88882
HEad  -8.3316 3.33819 3.4604
LeftShoulder1  0.346032 1.88019 -17.9073
LeftArm  -32.9158 -15.6692 -34.8108
LeftForeArm  -160.571 -70.5576 -156.205
LeftHand  1.36996 15.5946 15.8195
RightShoulder  2.16361 5.20499 19.0348
RightArm  -10.5414 37.6692 57.8196
RightForeArm  132.29 81.4763 60.126
RightHand  1.04359 -7.82193 -46.1356
LeftUpLeg  -35.1078 -11.4144 6.64275
LeftLeg  38.1118 -10.4211 -8.28963
LeftFoot  -12.5496 0.0881051 1.20895
LeftToes  1.09107e-011 -1.16422e-010 2.98337e-011
